
        <svg xmlns="http://www.w3.org/2000/svg" xmlns:xlink="http://www.w3.org/1999/xlink" version="1.1" width="3176.470588235294" 
        height="2794.717861638891" viewBox="0 0 3176.470588235294 2794.717861638891">
			
			<g transform="scale(8.823529411764707) translate(10, 10)">
				<defs id="SvgjsDefs2302"></defs><g id="SvgjsG2303" featureKey="symbolFeature-0" transform="matrix(2.288258292562019,0,0,2.288258292562019,56.09694732418045,-33.41254800956958)" fill="#ffffff"><path xmlns="http://www.w3.org/2000/svg" d="M60.47,53.914L43.344,83.242c-1.208,2.069-3.889,2.773-5.958,1.565L16.023,72.332c-2.069-1.208-2.773-3.889-1.565-5.958  l2.015-3.451l12.422,12.422c2.789,2.789,7.354,2.789,10.144,0L60.47,53.914z M44.479,46.471c0,1.287,1.043,2.33,2.33,2.33  c1.287,0,2.33-1.043,2.33-2.33c0-1.287-1.043-2.33-2.33-2.33C45.522,44.142,44.479,45.185,44.479,46.471z M27.31,50.255  c0,1.287,1.043,2.33,2.33,2.33s2.33-1.043,2.33-2.33s-1.043-2.33-2.33-2.33S27.31,48.969,27.31,50.255z M88.244,36.198l-4.19,1.016  c-1.673-6.927-4.566-11.102-8.569-12.415c-1.313-0.422-2.689-0.547-4.065-0.438l0.328,9.554c0.078,2.408-1.251,5.785-2.955,7.474  L36.879,73.303c-1.704,1.704-4.503,1.704-6.207,0L13.035,55.665c-1.704-1.704-1.704-4.503,0-6.208L44.932,17.56  c1.704-1.704,5.082-3.033,7.49-2.955l14.291,0.485c1.704,0.063,3.221,1.095,4.003,2.549c-3.049,0.203-6.067,1.141-9.554,2.721  c-4.128,1.861-6.692,3.925-7.709,4.8c-1.157,0.876-1.892,2.267-1.892,3.831c0,2.674,2.173,4.847,4.847,4.847  s4.847-2.173,4.847-4.847c0-0.266-0.016-0.532-0.063-0.782c-2.048,1.282-3.377,2.392-3.409,2.424v-0.016  c-0.36,0.313-0.844,0.5-1.376,0.5c-1.188,0-2.142-0.954-2.142-2.142c0-0.641,0.281-1.235,0.751-1.626v-0.016  c0.485-0.391,11.836-9.882,21.812-6.63C82.349,22.517,86.195,27.724,88.244,36.198z M33.612,54.227c2.189-2.189,2.189-5.754,0-7.943  c-2.189-2.189-5.754-2.189-7.943,0c-2.189,2.189-2.189,5.754,0,7.943C27.873,56.416,31.422,56.416,33.612,54.227z M40.663,59.746  l-2.126-22.985c-0.063-0.751-0.735-1.298-1.485-1.235c-0.751,0.063-1.298,0.735-1.235,1.485l2.126,22.985  c0.063,0.751,0.735,1.298,1.485,1.235C40.179,61.169,40.726,60.497,40.663,59.746z M50.78,42.5c-2.189-2.189-5.754-2.189-7.943,0  c-2.189,2.189-2.189,5.754,0,7.943c2.189,2.189,5.754,2.189,7.943,0C52.969,48.254,52.969,44.689,50.78,42.5z"></path></g><g id="SvgjsG2304" featureKey="nameFeature-0" transform="matrix(3.8086421504563246,0,0,3.8086421504563246,-7.586193995043452,144.23665579455366)" fill="#ffffff"><path d="M7.52 29.68 c-0.12 -4.56 -0.08 -9.4 -0.04 -13.92 c0 -1.4 -0.08 -2.92 -0.08 -4.32 c0 -1.52 -0.6 -1.44 -1.4 -1.48 c-1.16 -0.04 -1.68 -0.04 -2.84 -0.04 c-0.76 -0.04 -1.08 0.16 -1.08 0.92 c0 3.92 -0.12 15 -0.08 16.6 s0.2 8.88 0.12 10.48 c-0.04 0.56 0 1.12 0.04 1.68 c0.04 0.2 0.16 0.4 0.48 0.4 c1.32 -0.08 2.56 -0.08 3.88 -0.12 c0.48 -0.04 0.88 -0.16 1.08 -0.68 c0.04 -0.28 -0.08 -7.6 -0.08 -9.52 z M18.247999999999998 39.68 c0.12 0.04 0.48 0.04 0.84 0.04 c0.8 0 1.04 -2.88 1.12 -3.48 c0.04 -0.48 0.16 -0.52 0.56 -0.6 c2 -0.24 3 -0.08 5 -0.04 c0.44 0 0.68 0.2 0.8 0.56 l0.28 0.92 c0.24 0.68 0.44 1.52 0.68 2.2 c0.16 0.48 0.2 0.44 0.68 0.44 c0.64 0 2.96 0 3.64 -0.04 c0.92 0 0.28 -1.88 0.16 -2.2 c-0.36 -1.12 -0.44 -2.28 -0.8 -3.4 c-0.16 -0.48 -4.72 -22.12 -4.92 -23.32 c-0.28 -0.72 -0.04 -0.76 -0.68 -0.76 c-1.36 0 -2.8 0.08 -4.2 0 c-0.56 0 -0.52 0.16 -0.6 0.76 c-0.08 0.56 -1.52 6.92 -2.08 9.56 c-0.72 3.32 -1.36 6.52 -2.16 9.8 c-0.28 1.16 -2.2 9.52 -1.96 9.56 c0.12 0.08 0.32 0.04 0.48 0.04 c1 0 1.92 0 3.16 -0.04 z M23.488 30.6 l-0.84 0 c-1.12 0 -1.16 0 -0.88 -1.16 c0.2 -0.88 1.28 -5.64 1.52 -6.8 c0.04 -0.08 0.12 -0.16 0.16 -0.16 c0.08 0 0.16 0.08 0.2 0.12 c0.16 0.48 0.32 1.68 0.48 2.16 c0.36 1.52 0.6 2.8 0.96 4.44 c0.36 1.44 0.2 1.44 -0.52 1.44 c-0.36 0 -0.72 -0.04 -1.08 -0.04 z M45.096 10.04 c-0.4 0 -0.8 0.04 -1.2 0.04 c-0.6 0 -1.32 -0.12 -1.44 0.68 c-0.4 3.4 -0.76 7.16 -1.16 10.56 c-0.68 5.6 -1.32 11.36 -1.96 16.96 c-0.08 0.76 -0.16 1.48 0.68 1.64 c1.28 0.08 2.24 0.08 3.32 0.04 c0.4 0.04 0.84 0.08 0.96 -0.4 c0.08 -0.2 0.08 -0.4 0.08 -0.6 c0.08 -0.92 1.28 -12.44 1.76 -12.44 c0.76 0 2.76 9.36 3.72 12.8 c0.12 0.48 0.36 0.68 0.84 0.64 c1 -0.08 1.96 0 2.96 0 s0.8 -0.64 1 -1.48 c0.24 -0.92 2.56 -12 3.12 -12 c0.64 0 1.96 12.84 2.08 13.12 c0.24 0.56 0.92 0.32 1.4 0.32 c0.72 0 1.4 0.08 2.32 0 c0.68 -0.08 1.36 0.16 1.4 -0.72 c0 -0.2 -0.08 -0.4 -0.12 -0.6 c-0.16 -1 -0.36 -2.2 -0.56 -3.2 c-0.28 -2.08 -0.68 -4.12 -0.96 -6.2 c-0.4 -3.28 -0.8 -6.56 -1.16 -9.84 c-0.28 -2.8 -0.68 -5.96 -0.92 -8.76 c-0.08 -0.92 -1.12 -0.6 -1.76 -0.6 l-2.76 0 c-0.44 0 -0.64 0.84 -0.72 1.28 c-0.24 1.12 -3 15.56 -3.92 15.56 s-3.88 -13.2 -4.4 -16.08 c-0.12 -0.64 -0.56 -0.84 -1.16 -0.84 z M79.18399999999998 27.759999999999998 l0.04 11.68 c0 0.44 0.4 0.6 0.72 0.6 l3.68 0 c0.68 0 0.68 -0.6 0.68 -0.88 c0 -3.76 0 -7.8 0.16 -11.6 c0 -0.64 0.08 -1.24 0.4 -1.84 c0.36 -0.6 5.68 -12.48 6.28 -14.44 c0.08 -0.28 0.24 -0.76 -0.04 -1 c-0.48 -0.44 -2.4 -0.24 -3.56 -0.24 c-0.72 0 -1.16 0.28 -1.48 1 c-1.36 3.16 -2.76 6.28 -4.16 9.44 c-0.12 0.28 -0.28 0.28 -0.48 0 c-0.44 -0.72 -3.28 -7.76 -3.72 -9.32 c-0.08 -0.2 -0.12 -0.4 -0.24 -0.56 c-0.56 -0.64 -1.48 -0.56 -2.24 -0.56 c-1 0 -1.72 0.04 -2.68 0.04 c-0.64 0 -0.68 0.6 -0.56 1.12 c0.04 0.2 0.16 0.4 0.24 0.56 c1.52 2.88 5.8 12.4 6.56 14.2 c0.4 0.84 0.36 0.88 0.4 1.8 z"></path></g>
			</g>
		</svg>
	